<svg xmlns="http://www.w3.org/2000/svg" xmlns:xlink="http://www.w3.org/1999/xlink" preserveAspectRatio="xMidYMid meet" version="1.0" viewBox="2.5 2.9 495.0 458.2" zoomAndPan="magnify" style="fill: rgb(0, 0, 0);" original_string_length="2110"><g id="__id122_s8w16jw9ck" style="fill: rgb(22, 22, 22);"><path d="M418.6,364.3c0,0,15.6,36.9,42.1,35.8c26.5-1.2,36.8-10.7,36.8-10.7l-8.1,61.4c0,0-78.9,2.2-84.3-69.2 C404.1,368,418.6,364.3,418.6,364.3z" style="fill: inherit;"/><circle cx="231.6" cy="232" r="157.4" style="fill: inherit;"/></g><g id="__id123_s8w16jw9ck"><path d="M231.6,2.9C105.1,2.9,2.5,105.5,2.5,232s102.6,229.1,229.1,229.1S460.7,358.5,460.7,232 S358.1,2.9,231.6,2.9z M231.6,43.6c34.7,0,62.7,28.1,62.7,62.7s-28.1,62.7-62.7,62.7c-34.6,0-62.7-28.1-62.7-62.7 S196.9,43.6,231.6,43.6z M272.5,224.7c0,4.3-3.4,7.7-7.7,7.7c-4.3,0-7.7-3.4-7.7-7.7c0-4.3,3.4-7.7,7.7-7.7 C269.1,217,272.5,220.4,272.5,224.7z M239.3,191.4c0,4.3-3.4,7.7-7.7,7.7c-4.3,0-7.7-3.4-7.7-7.7c0-4.3,3.4-7.7,7.7-7.7 C235.8,183.7,239.3,187.2,239.3,191.4z M206,224.7c0,4.3-3.4,7.7-7.7,7.7s-7.7-3.4-7.7-7.7c0-4.3,3.4-7.7,7.7-7.7 S206,220.4,206,224.7z M49.8,196.7c0-34.6,28.1-62.7,62.7-62.7s62.7,28.1,62.7,62.7s-28.1,62.7-62.7,62.7S49.8,231.4,49.8,196.7z M156.2,395.5c-34.6,0-62.7-28.1-62.7-62.7c0-34.6,28.1-62.7,62.7-62.7c34.7,0,62.7,28.1,62.7,62.7 C218.9,367.4,190.8,395.5,156.2,395.5z M214.1,224.7c0-9.7,7.8-17.5,17.5-17.5c9.7,0,17.5,7.8,17.5,17.5c0,9.7-7.8,17.5-17.5,17.5 C221.9,242.2,214.1,234.3,214.1,224.7z M231.6,265.6c-4.3,0-7.7-3.4-7.7-7.7c0-4.3,3.4-7.7,7.7-7.7c4.3,0,7.7,3.4,7.7,7.7 C239.3,262.2,235.8,265.6,231.6,265.6z M305.8,395.5c-34.6,0-62.7-28.1-62.7-62.7c0-34.6,28.1-62.7,62.7-62.7 c34.7,0,62.7,28.1,62.7,62.7C368.6,367.4,340.5,395.5,305.8,395.5z M350.6,259.5c-34.6,0-62.7-28.1-62.7-62.7S316,134,350.6,134 c34.7,0,62.7,28.1,62.7,62.7S385.3,259.5,350.6,259.5z" style="fill: rgb(135, 135, 135);"/></g><g id="__id124_s8w16jw9ck"><path d="M233.1,442.9c-116.3,0-211-94.6-211-211c0-116.3,94.6-211,211-211c116.3,0,211,94.6,211,211 C444,348.3,349.4,442.9,233.1,442.9z M233.1,31c-110.8,0-201,90.2-201,201c0,110.8,90.2,201,201,201s201-90.2,201-201 C434,121.2,343.9,31,233.1,31z" style="fill: rgb(135, 135, 135);"/></g></svg>